<svg width="200" height="60" viewBox="0 0 200 60" fill="none" xmlns="http://www.w3.org/2000/svg">
  <rect width="56" height="56" rx="13" fill="#1B2F5B" x="2" y="2"/>
  <rect x="5" y="5" width="50" height="50" rx="11" fill="none" stroke="#C8A44A" stroke-width="0.6" opacity="0.3"/>
  <circle cx="30" cy="22" r="11" fill="#C8A44A"/>
  <circle cx="35" cy="19" r="9.5" fill="#1B2F5B"/>
  <path d="M41.5 13.5 L42.3 16 L44.9 16 L42.8 17.6 L43.6 20.1 L41.5 18.5 L39.4 20.1 L40.2 17.6 L38.1 16 L40.7 16 Z" fill="#C8A44A"/>
  <rect x="17" y="34" width="26" height="19" rx="1" fill="#F4EDD8"/>
  <rect x="17" y="34" width="26" height="11" rx="1" fill="#1B2F5B"/>
  <rect x="17" y="41" width="26" height="3" fill="#C8A44A"/>
  <path d="M26 53 L26 47 Q30 44.5 34 47 L34 53 Z" fill="#C8A44A" opacity="0.9"/>
  <path d="M27.5 53 L27.5 47.5 Q30 45.5 32.5 47.5 L32.5 53 Z" fill="#1B2F5B"/>
  <rect x="10" y="53" width="40" height="1.5" rx="0.75" fill="#C8A44A" opacity="0.4"/>
  <text x="68" y="30" font-family="system-ui,Arial,sans-serif" font-weight="800" font-size="16" fill="#1B2F5B" letter-spacing="1.5">HAJJ UMRAH</text>
  <text x="68" y="44" font-family="system-ui,Arial,sans-serif" font-weight="700" font-size="10" fill="#C8A44A" letter-spacing="3">RENTALS</text>
</svg>
